{"title":"Sardar Ji 2 (2016) 1CD XviD Desipdvd Rip [love Rulz]","uid":15105079,"size":740741082,"categoryP":"video","categoryS":"movies","magnet":"?xt=urn:btih:fa4a655918e72013cc872a08641e7b40b0c15ad5&amp;dn=Sardar+Ji+2+%282016%29+1CD+XviD+Desipdvd+Rip+%5Blove+Rulz%5D+&amp;tr=udp%3A%2F%2Ftracker.leechers-paradise.org%3A6969&amp;tr=udp%3A%2F%2Fzer0day.ch%3A1337&amp;tr=udp%3A%2F%2Fopen.demonii.com%3A1337&amp;tr=udp%3A%2F%2Ftracker.coppersurfer.tk%3A6969&amp;tr=udp%3A%2F%2Fexodus.desync.com%3A6969","seeders":0,"leechers":1,"uploader":"loverulz","files":1,"time":1466976331,"description":"\n\r\n             Sardar Ji 2 (2016) 1CD XviD Desipdvd Rip [love Rulz] \r\n\r\n\r\n\r\nFormat : AVI\r\nFile size : 706 MiB\r\nDuration : 2h 13mn\r\nOverall bit rate mode : Variable\r\nOverall bit rate : 688 Kbps\r\n\r\nVideo\r\nFormat : MPEG-4 Visual\r\nFormat profile : Advanced   \r\nFormat settings, Matrix : Custom\r\nCodec ID : XVID\r\nDuration : 2h 13mn\r\nBit rate : 600 Kbps\r\nWidth : 640 pixels\r\nHeight : 272 pixels\r\nDisplay aspect ratio : 2.35:1\r\nFrame rate : 25.000 fps\r\nBit depth : 8 bits\r\nScan type : Progressive\r\nBits/(Pixel*Frame) : 0.138\r\nStream size : 574 MiB (87%)\r\n\r\nAudio\r\nCodec ID/Hint : MP3\r\nDuration : 2h 13mn\r\nBit rate mode : Variable\r\nBit rate : 80.0 Kbps\r\nChannel(s) : 2 channels\r\nSampling rate : 32.0 KHz\r\nCompression mode : Lossy\r\nStream size : 74.7 MiB (11%)","torrent":{"xt":"urn:btih:fa4a655918e72013cc872a08641e7b40b0c15ad5","amp;dn":"Sardar+Ji+2+%282016%29+1CD+XviD+Desipdvd+Rip+%5Blove+Rulz%5D+","amp;tr":["udp%3A%2F%2Ftracker.leechers-paradise.org%3A6969","udp%3A%2F%2Fzer0day.ch%3A1337","udp%3A%2F%2Fopen.demonii.com%3A1337","udp%3A%2F%2Ftracker.coppersurfer.tk%3A6969","udp%3A%2F%2Fexodus.desync.com%3A6969"],"infoHash":"fa4a655918e72013cc872a08641e7b40b0c15ad5","infoHashBuffer":{"type":"Buffer","data":[250,74,101,89,24,231,32,19,204,135,42,8,100,30,123,64,176,193,90,213]},"announce":[],"urlList":[]}}